<svg width="56" height="28" viewBox="0 0 56 28" fill="none" xmlns="http://www.w3.org/2000/svg">
<rect x="0.4375" y="0.4375" width="55.125" height="27.125" fill="#93C5FD" stroke="#2563EB" stroke-width="0.875" stroke-dasharray="1.75 1.75"/>
<path d="M5.48047 18V10.6018H10.1973V11.7144H6.80322V13.9036H9.90503V14.9802H6.80322V18H5.48047ZM13.3862 18.1128C12.125 18.1128 11.479 17.354 11.479 16.021V12.3962H12.7556V15.7288C12.7556 16.5952 13.0786 17.0361 13.8477 17.0361C14.6731 17.0361 15.114 16.5029 15.114 15.6621V12.3962H16.3906V18H15.114V17.1489H15.0269C14.7654 17.7488 14.1963 18.1128 13.3862 18.1128ZM18.0005 18V10.2275H19.2771V18H18.0005ZM20.9434 18V10.2275H22.22V18H20.9434ZM26.7676 18V10.6018H28.0903V16.8875H31.4844V18H26.7676ZM34.9399 18.1128C33.2583 18.1128 32.2432 17.0156 32.2432 15.2007V15.1904C32.2432 13.3909 33.2737 12.2886 34.9399 12.2886C36.6113 12.2886 37.6367 13.3857 37.6367 15.1904V15.2007C37.6367 17.0156 36.6165 18.1128 34.9399 18.1128ZM34.9399 17.0771C35.8269 17.0771 36.3293 16.385 36.3293 15.2058V15.1956C36.3293 14.0164 35.8218 13.3191 34.9399 13.3191C34.053 13.3191 33.5454 14.0164 33.5454 15.1956V15.2058C33.5454 16.385 34.053 17.0771 34.9399 17.0771ZM41.3281 19.9688C39.8516 19.9688 38.9646 19.3381 38.8364 18.3948L38.8416 18.3794H40.1182L40.1233 18.3948C40.2104 18.7537 40.636 19.0049 41.3486 19.0049C42.2202 19.0049 42.7278 18.5999 42.7278 17.8821V16.8105H42.6406C42.3176 17.4104 41.7075 17.7385 40.9333 17.7385C39.5132 17.7385 38.6313 16.6414 38.6313 15.052V15.0417C38.6313 13.4216 39.5132 12.304 40.959 12.304C41.7332 12.304 42.3381 12.6833 42.656 13.3191H42.7227V12.3962H43.9993V17.8616C43.9993 19.1536 42.9636 19.9688 41.3281 19.9688ZM41.3281 16.7234C42.2151 16.7234 42.7483 16.0415 42.7483 15.052V15.0417C42.7483 14.0522 42.21 13.3652 41.3281 13.3652C40.4412 13.3652 39.9387 14.0522 39.9387 15.0417V15.052C39.9387 16.0415 40.4412 16.7234 41.3281 16.7234ZM47.9829 18.1128C46.3013 18.1128 45.2861 17.0156 45.2861 15.2007V15.1904C45.2861 13.3909 46.3167 12.2886 47.9829 12.2886C49.6543 12.2886 50.6797 13.3857 50.6797 15.1904V15.2007C50.6797 17.0156 49.6594 18.1128 47.9829 18.1128ZM47.9829 17.0771C48.8699 17.0771 49.3723 16.385 49.3723 15.2058V15.1956C49.3723 14.0164 48.8647 13.3191 47.9829 13.3191C47.0959 13.3191 46.5884 14.0164 46.5884 15.1956V15.2058C46.5884 16.385 47.0959 17.0771 47.9829 17.0771Z" fill="#2563EB"/>
</svg>
